<svg width="47" height="47" viewBox="0 0 47 47" fill="none" xmlns="http://www.w3.org/2000/svg">
<circle opacity="0.1" cx="25.5" cy="21.6738" r="21.5" fill="#F6762C"/>
<path d="M12.8079 14.8666H4.26931C3.08325 14.8666 2.07531 15.2817 1.24501 16.1117C0.415108 16.9418 0 17.9497 0 19.1359V27.6742C0 28.8602 0.414874 29.868 1.24501 30.698C2.07523 31.5279 3.08348 31.9432 4.26931 31.9432H9.25006C9.84281 31.9432 10.3469 32.1508 10.762 32.5658C11.1772 32.9805 11.3846 33.4848 11.3846 34.078V34.7891C11.3846 36.3605 10.8286 37.7017 9.71696 38.8136C8.6052 39.9251 7.26377 40.481 5.6922 40.481H4.26931C3.88364 40.481 3.55023 40.6222 3.26845 40.9037C2.98691 41.1851 2.84602 41.5188 2.84602 41.9042V44.7507C2.84602 45.1355 2.98691 45.4698 3.26845 45.7513C3.55046 46.0327 3.88356 46.174 4.26931 46.174H5.69228C7.2341 46.174 8.70536 45.8734 10.1063 45.2732C11.5071 44.673 12.7189 43.8611 13.7418 42.8383C14.7645 41.8153 15.5761 40.6038 16.1764 39.2028C16.7767 37.802 17.0769 36.3308 17.0769 34.7892V19.1356C17.0769 17.9494 16.6618 16.9416 15.8318 16.1116C15.0018 15.2816 13.9937 14.8666 12.8079 14.8666Z" fill="#F6762C"/>
<path d="M35.7545 16.1115C34.9246 15.2815 33.9166 14.8664 32.7305 14.8664H24.1922C23.0062 14.8664 21.9982 15.2815 21.1683 16.1115C20.3384 16.9417 19.9234 17.9496 19.9234 19.1357V27.674C19.9234 28.8601 20.3384 29.8678 21.1683 30.6978C21.9982 31.5277 23.0063 31.943 24.1922 31.943H29.173C29.7657 31.943 30.2703 32.1506 30.6853 32.5656C31.0999 32.9805 31.3079 33.4846 31.3079 34.0778V34.7889C31.3079 36.3604 30.7519 37.7015 29.64 38.8135C28.5283 39.9249 27.1872 40.4808 25.6154 40.4808H24.1922C23.8069 40.4808 23.4732 40.622 23.1917 40.9035C22.91 41.185 22.769 41.5186 22.769 41.904V44.7505C22.769 45.1353 22.91 45.4696 23.1917 45.7511C23.4731 46.0325 23.8068 46.1738 24.1922 46.1738H25.6154C27.157 46.1738 28.6282 45.8732 30.0293 45.273C31.4299 44.6728 32.6415 43.861 33.6645 42.8381C34.6874 41.8151 35.4995 40.6033 36.0995 39.2026C36.6996 37.8021 37 36.3306 37 34.789V19.1354C36.9998 17.9493 36.585 16.9414 35.7545 16.1115Z" fill="#F6762C"/>
</svg>
